<?xml version="1.0" encoding="UTF-8"?>
<svg id="Livello_1" xmlns="http://www.w3.org/2000/svg" version="1.1" viewBox="0 0 40 40">
  <!-- Generator: Adobe Illustrator 29.0.0, SVG Export Plug-In . SVG Version: 2.1.0 Build 186)  -->
  <defs>
    <style>
      .st0 {
        fill: #fff;
      }

      .st1 {
        fill: none;
      }
    </style>
  </defs>
  <path class="st0" d="M20,1.3L4.3,5.8c0,6.3.2,10.9.6,13.9.2,1.2.4,2.4.6,3.5l.4,1.6c.3,1.1.7,2,1.1,3,.4.9.9,1.8,1.5,2.5.2.5,1.2,1.5,2.9,3.1,1.8,1.5,4.6,3.3,8.6,5.2,3.9-2,6.8-3.7,8.6-5.2,1.7-1.6,2.7-2.6,2.9-3.1.6-.8,1.1-1.6,1.5-2.5.4-.9.8-1.9,1.1-3l.4-1.6c.2-1.1.4-2.3.6-3.5.4-3,.6-7.7.6-13.9L20,1.3ZM34.4,19.8c-.1,1.2-.3,2.3-.6,3.3l-.4,1.5c-.3,1-.6,1.9-1.1,2.8-.4.9-.9,1.7-1.4,2.4-.2.4-1.1,1.4-2.8,2.9-1.7,1.5-4.4,3.1-8.1,5-3.7-1.9-6.5-3.5-8.2-5-1.6-1.5-2.6-2.5-2.8-2.9-.5-.7-1-1.5-1.4-2.4-.4-.9-.8-1.8-1.1-2.8l-.4-1.5c-.2-1.1-.4-2.2-.6-3.3-.4-2.9-.6-7.3-.6-13.2l14.9-4.3,14.9,4.3c0,5.9-.2,10.4-.6,13.2Z"/>
  <rect class="st1" x="13.8" y="10.2" width="12.5" height="15.7"/>
  <g>
    <path class="st0" d="M19.9,11.9c-1.8,0-3.2,1.4-3.2,3.2v1.3h6.4v-1.3c0-1.8-1.4-3.2-3.2-3.2Z"/>
    <path class="st0" d="M19.9,19c-.3,0-.6.1-.8.3-.2.2-.3.5-.3.8s0,.1,0,.2c0,0,0,.1,0,.1,0,.3.3.5.5.7l-.4,1.8c0,0,0,.2,0,.2,0,0,.1.1.2.1h1.4c0,0,.2,0,.2-.1,0,0,0-.1,0-.2l-.4-1.8c.3-.1.5-.4.5-.7,0,0,0-.1,0-.1,0,0,0-.1,0-.2,0-.3-.1-.6-.3-.8-.2-.2-.5-.3-.8-.3Z"/>
    <path class="st0" d="M20,3.1L5.8,7.2c0,5.6.2,9.8.5,12.6.1,1.1.3,2.2.5,3.2l.4,1.5c.3,1,.6,1.8,1,2.7.4.8.8,1.6,1.4,2.3.2.4,1.1,1.3,2.6,2.8,1.6,1.4,4.2,3,7.7,4.7,3.5-1.8,6.1-3.3,7.7-4.7,1.6-1.4,2.4-2.4,2.6-2.8.5-.7,1-1.4,1.4-2.3.4-.8.7-1.7,1-2.7l.4-1.5c.2-1,.4-2.1.5-3.2.4-2.7.5-6.9.5-12.6l-14.2-4.1ZM26.1,24.7c0,.2,0,.4-.1.5,0,.2-.2.3-.3.4s-.3.2-.4.3c-.2,0-.3.1-.5.1h-9.6c-.2,0-.4,0-.5-.1-.2,0-.3-.2-.4-.3-.1-.1-.2-.3-.3-.4,0-.2-.1-.3-.1-.5v-7c0-.7.6-1.3,1.3-1.3v-1.3c0-2.7,2.2-4.8,4.8-4.8s4.8,2.2,4.8,4.8v1.3c.7,0,1.3.6,1.3,1.3v7Z"/>
  </g>
</svg>