<?xml version="1.0" encoding="UTF-8"?>
<svg id="Livello_1" xmlns="http://www.w3.org/2000/svg" version="1.1" viewBox="0 0 40 40">
  <!-- Generator: Adobe Illustrator 29.0.0, SVG Export Plug-In . SVG Version: 2.1.0 Build 186)  -->
  <defs>
    <style>
      .st0 {
        fill: #fff;
      }

      .st1 {
        fill: none;
      }
    </style>
  </defs>
  <rect class="st1" x="-17.3" y="80.2" width="34.7" height="12.1"/>
  <path class="st0" d="M37.2,32.9l-12.2-10.2c-.4-.3-.9-.3-1.2,0l-3.3,2.8c-.3.3-.8.3-1.1,0l-3.3-2.8c-.4-.3-.9-.3-1.2,0l-12.1,10.2c-.2.1,0,.4.1.4h34.1c.2,0,.3-.3.1-.4"/>
  <rect class="st1" x="-19.4" y="68.2" width="14" height="22.7"/>
  <path class="st0" d="M13.4,20.4L1,9.9c-.2-.1-.4,0-.4.2v21.3c0,.2.2.3.4.2l12.4-10.4c.2-.2.2-.6,0-.8"/>
  <rect class="st1" x="-17.3" y="67.2" width="34.7" height="15.7"/>
  <path class="st0" d="M2.8,8.7l16.7,14.1c.3.2.7.2.9,0l16.8-14.1c.2-.1,0-.4-.1-.4H2.9c-.2,0-.3.3-.1.4"/>
  <rect class="st1" x="5.3" y="68.2" width="14" height="22.7"/>
  <path class="st0" d="M39,9.9l-12.4,10.4c-.3.2-.3.6,0,.8l12.4,10.4c.2.1.4,0,.4-.2V10.1c0-.2-.2-.3-.4-.2"/>
</svg>