<?xml version="1.0" encoding="UTF-8"?>
<svg id="Livello_1" xmlns="http://www.w3.org/2000/svg" version="1.1" viewBox="0 0 40 40">
  <!-- Generator: Adobe Illustrator 29.0.0, SVG Export Plug-In . SVG Version: 2.1.0 Build 186)  -->
  <defs>
    <style>
      .st0 {
        fill: #fff;
      }

      .st1 {
        fill: none;
      }
    </style>
  </defs>
  <rect class="st1" x="-26.8" y="57.8" width="38.7" height="32.9"/>
  <path class="st0" d="M38,4.7c-.1,0-.2,0-.3.1-1.2.9-2.4,1.7-3.5,2.6-2.3,1.7-4.5,3.3-6.8,5-2.3,1.7-4.6,3.3-7,5-2.6,1.9-5.2,3.7-7.8,5.6-.1,0-.3.2-.4.3.2.8.5,1.5.7,2.3.9,2.9,1.8,5.7,2.6,8.6.2.6.3,1.2.5,1.8,0,.2,0,.4-.3.5-.4-.9-.8-1.9-1.1-2.8-1.2-3.2-2.3-6.3-3.5-9.5,0-.2-.2-.3-.5-.4-.8,0-1.7-.2-2.5-.2-1.2-.1-2.5-.3-3.7-.4-.8,0-1.7-.2-2.5-.3-.5,0-.8-.3-.9-.6,0-.4.1-.7.6-1,1-.5,1.9-.9,2.9-1.4,3.8-1.9,7.6-3.7,11.4-5.6,6.7-3.2,13.4-6.5,20.2-9.7.6-.3,1.2-.6,1.8-.8.5-.2.9-.3,1.3,0,.4.4.4.8.2,1.3-.9,2.7-1.8,5.4-2.7,8.1l-4.1,12.6c-.8,2.6-1.7,5.1-2.6,7.7-.2.5-.4.9-1,1-.4,0-.7,0-1-.3l-6.5-4.8s0,0-.1,0c-1.6,2.3-3.3,4.6-4.9,6.9v-.9c0-2.9,0-5.9.1-8.8,0-.5.1-.8.5-1.1,2.4-2.2,4.7-4.5,7-6.8,3.4-3.2,6.7-6.5,10.1-9.7,1.2-1.2,2.4-2.4,3.6-3.7.2-.2.3-.3.4-.5,0,0,0,0,0-.1Z"/>
</svg>